<?xml version="1.0" encoding="UTF-8"?>
<svg version="1.1" xmlns="http://www.w3.org/2000/svg" width="2917" height="738">
<path d="M0 0 C2.13884425 1.85949305 4.23294302 3.76207943 6.3125 5.6875 C6.8497168 6.18088867 7.38693359 6.67427734 7.94042969 7.18261719 C22.87556789 21.05412537 42.95876751 43.38486736 44.45776367 64.75878906 C44.48252481 67.15183373 44.49815625 69.54431779 44.5 71.9375 C44.51224609 72.75863281 44.52449219 73.57976562 44.53710938 74.42578125 C44.5500017 79.84915231 43.89358774 84.49165778 42.3125 89.6875 C41.3125 90.6875 41.3125 90.6875 38.7578125 90.70703125 C23.74782478 89.77111437 9.5391024 84.13619903 -0.87109375 72.921875 C-6.2673501 66.28389944 -10.00879193 60.08104036 -11.6875 51.6875 C-13.56888759 49.39819764 -13.56888759 49.39819764 -16.625 49.3125 C-19.72477981 49.40181131 -19.72477981 49.40181131 -21.625 51.375 C-22.87211323 53.64221461 -22.87211323 53.64221461 -22.625 56.1875 C-21.85343187 58.80125468 -21.85343187 58.80125468 -19.734375 60.53515625 C-13.78362356 66.79253038 -13.69714631 78.48813466 -13.6875 86.6875 C-14.6329441 101.02387049 -19.72072556 112.58471974 -28.6875 123.6875 C-40.0930218 122.23467365 -49.19333614 114.96009775 -56.58984375 106.515625 C-61.70308761 99.84714942 -64.264205 92.45910518 -67.00976562 84.62109375 C-72.59205919 68.69466543 -80.94218555 57.75504629 -96.21875 49.86328125 C-110.32652618 43.53011651 -123.74621989 41.32509272 -138.64453125 46.43359375 C-148.78292702 50.61128957 -155.67185393 57.51956567 -160.125 67.5625 C-166.76560474 88.08800556 -158.07336074 110.11109101 -148.92114258 128.41552734 C-133.74807186 157.67707102 -108.53206932 172.77090282 -78.32421875 183.33203125 C-62.00297086 189.06288086 -45.90837845 195.43638069 -30.6875 203.6875 C-30.09469238 204.00396484 -29.50188477 204.32042969 -28.89111328 204.64648438 C-3.7257719 218.15752527 19.08487723 237.92807175 36.3125 260.6875 C36.72773926 261.22632813 37.14297852 261.76515625 37.57080078 262.3203125 C45.25758618 272.3190184 51.97047194 282.79292694 58.3125 293.6875 C58.6744043 294.29996582 59.03630859 294.91243164 59.40917969 295.54345703 C83.28094098 336.28535776 92.95050259 387.13816136 81.39624023 433.21972656 C75.42703434 455.67561272 64.89311974 476.58140017 50.3125 494.6875 C49.55324219 495.65558594 48.79398438 496.62367188 48.01171875 497.62109375 C34.92440219 514.00929655 19.97308132 529.91586074 3.3125 542.6875 C2.03851643 543.6894102 0.76512347 544.69207165 -0.5078125 545.6953125 C-74.72544347 603.78170222 -167.09230153 629.86375656 -260.66796875 618.66015625 C-294.2285735 614.19433751 -327.9226732 604.95119242 -358.6875 590.6875 C-358.6875 590.3575 -358.6875 590.0275 -358.6875 589.6875 C-357.91486816 589.66768066 -357.14223633 589.64786133 -356.34619141 589.62744141 C-261.73714227 587.09913225 -173.47479397 561.01775417 -59.6875 461.6875 C-56.48601011 458.17503101 -53.59122164 454.44744725 -50.6875 450.6875 C-49.64726073 449.41985799 -48.60261086 448.15582846 -47.5546875 446.89453125 C-35.20303679 433.81105485 -35.20303679 433.81105485 -29.1875 417.9375 C-29.3525 416.865 -29.5175 415.7925 -29.6875 414.6875 C-33.57280478 415.02052612 -35.60607909 416.11746799 -38.24609375 418.97265625 C-40.78390454 421.99189456 -43.2026979 425.10616564 -45.64453125 428.203125 C-47.93936096 430.99377834 -50.39839837 433.49138076 -52.99609375 435.99609375 C-54.71399837 437.71399837 -56.25495488 439.5113035 -57.8125 441.375 C-62.94711517 447.31189879 -68.83238926 452.47827273 -74.6875 457.6875 C-75.20054687 458.14527832 -75.71359375 458.60305664 -76.2421875 459.07470703 C-138.03359721 513.80252618 -221.98341528 545.06277685 -303.6875 550.6875 C-304.92765869 550.77427002 -304.92765869 550.77427002 -306.19287109 550.86279297 C-364.39933937 554.73250688 -423.72397604 548.00138625 -469.2421875 508.46875 C-471.75424271 506.23920556 -474.2264211 503.97307908 -476.6875 501.6875 C-477.65236328 500.82125 -477.65236328 500.82125 -478.63671875 499.9375 C-485.29671842 493.68240597 -490.56009683 486.22410679 -496.00732422 478.92773438 C-497.62691882 476.7682749 -499.26487336 474.62430162 -500.91015625 472.484375 C-507.03044531 464.48974741 -512.61890244 456.39356169 -517.6875 447.6875 C-517.0275 447.3575 -516.3675 447.0275 -515.6875 446.6875 C-513.65405273 447.5168457 -513.65405273 447.5168457 -511.12109375 448.86328125 C-510.17387451 449.35658936 -509.22665527 449.84989746 -508.25073242 450.3581543 C-507.21924072 450.89996338 -506.18774902 451.44177246 -505.125 452 C-454.86991694 477.6990078 -398.05358299 491.28768006 -341.6875 492.6875 C-340.924375 492.70941406 -340.16125 492.73132813 -339.375 492.75390625 C-272.87278025 494.43892871 -207.39198793 477.38230075 -148.6875 446.6875 C-147.93033691 446.29369141 -147.17317383 445.89988281 -146.39306641 445.49414062 C-132.88776332 438.41928134 -120.20035603 430.38759646 -107.6875 421.6875 C-106.66366211 420.98584717 -106.66366211 420.98584717 -105.61914062 420.27001953 C-103.87892172 419.07215383 -102.15503641 417.85508424 -100.4375 416.625 C-99.52484375 415.97402344 -98.6121875 415.32304687 -97.671875 414.65234375 C-95.34837791 412.35171573 -94.97683108 410.89796213 -94.6875 407.6875 C-100.14828813 407.3416415 -103.26228515 408.09812256 -107.9765625 410.8359375 C-108.5529245 411.16395859 -109.1292865 411.49197968 -109.72311401 411.8299408 C-110.95423858 412.53170675 -112.1818052 413.23974594 -113.40600586 413.95352173 C-116.64870455 415.8397496 -119.92358968 417.66864149 -123.1953125 419.50390625 C-123.84465759 419.86951157 -124.49400269 420.23511688 -125.1630249 420.61180115 C-210.29004493 468.40308404 -320.10393308 477.22439213 -413.63305664 451.27593994 C-433.72615287 445.52081395 -453.84787154 438.7808456 -472.6875 429.6875 C-473.49380859 429.29884766 -474.30011719 428.91019531 -475.13085938 428.50976562 C-491.77353986 420.36547518 -506.42100532 410.62330493 -519.6875 397.6875 C-520.46351563 396.98496094 -521.23953125 396.28242188 -522.0390625 395.55859375 C-536.64892034 381.95542223 -545.61040169 363.21156773 -553 345 C-553.42095947 343.96689697 -553.84191895 342.93379395 -554.27563477 341.86938477 C-558.79465249 330.43400449 -561.11413676 319.27151452 -562.375 307.0625 C-562.50455078 305.91265625 -562.63410156 304.7628125 -562.76757812 303.578125 C-563.48421257 296.91987059 -563.8674146 290.38336915 -563.6875 283.6875 C-560.1620816 285.3357833 -558.18686941 287.10318169 -555.625 290.0625 C-554.82964844 290.96484375 -554.03429687 291.8671875 -553.21484375 292.796875 C-552.38082031 293.75078125 -551.54679688 294.7046875 -550.6875 295.6875 C-538.81958459 309.1746334 -525.85097929 321.62169865 -511.6875 332.6875 C-510.37577476 333.7402287 -509.06462419 334.79367367 -507.75390625 335.84765625 C-496.50782005 344.82003329 -484.80570909 352.93930354 -472.6875 360.6875 C-472.02186035 361.11369629 -471.3562207 361.53989258 -470.67041016 361.97900391 C-459.10609448 369.31074933 -446.89891892 375.51701139 -434.6875 381.6875 C-433.54643799 382.26612793 -433.54643799 382.26612793 -432.38232422 382.85644531 C-419.87920399 389.1384584 -406.87447232 394.04150476 -393.6875 398.6875 C-392.19452393 399.2139209 -392.19452393 399.2139209 -390.67138672 399.75097656 C-325.12824017 422.52344422 -255.41345859 423.4187321 -187.63061523 411.21240234 C-184.65309132 410.68136324 -181.67170784 410.17944821 -178.6875 409.6875 C-178.3575 408.3675 -178.0275 407.0475 -177.6875 405.6875 C-178.94892822 405.75332275 -180.21035645 405.81914551 -181.51000977 405.88696289 C-280.19625915 410.95021721 -372.47202973 392.54033468 -453.6875 333.6875 C-454.46657715 333.12772461 -455.2456543 332.56794922 -456.04833984 331.99121094 C-466.08155583 324.77599719 -475.8435499 317.39093474 -485.05664062 309.14648438 C-486.14967845 308.16864096 -487.24740776 307.1960181 -488.34960938 306.22851562 C-518.89425841 279.40795041 -540.46178772 242.72703647 -543.6875 201.6875 C-544.99977976 171.66720052 -542.56953705 134.24437466 -522.6875 109.6875 C-522.0275 109.6875 -521.3675 109.6875 -520.6875 109.6875 C-520.28660156 110.89921875 -519.88570312 112.1109375 -519.47265625 113.359375 C-515.55701594 124.98327311 -511.03705041 136.14698164 -505.82714844 147.24804688 C-504.7233976 149.61066006 -503.6443297 151.98312446 -502.5703125 154.359375 C-483.14011192 196.92824048 -454.88560524 234.37608602 -422.07467651 267.47454834 C-420.66983577 268.89225365 -419.26857306 270.31350176 -417.86743164 271.73486328 C-411.78422053 277.82518542 -405.408745 283.31813505 -398.6875 288.6875 C-397.47433179 289.71174853 -396.26534323 290.74098941 -395.0625 291.77734375 C-372.78060784 310.71711624 -346.9197952 326.14661678 -320.60595703 338.76074219 C-318.68447165 339.68896292 -316.77768167 340.64317071 -314.87109375 341.6015625 C-291.74868959 353.0623322 -256.82589372 369.19832023 -230.375 368.75 C-228.5496875 368.7190625 -228.5496875 368.7190625 -226.6875 368.6875 C-226.6875 367.6975 -226.6875 366.7075 -226.6875 365.6875 C-227.34669434 365.52241943 -228.00588867 365.35733887 -228.68505859 365.18725586 C-235.77750585 363.34147297 -242.5214526 360.99510815 -249.3125 358.25 C-250.38717529 357.81679443 -251.46185059 357.38358887 -252.5690918 356.93725586 C-290.75509853 341.29790726 -326.16082883 320.35302277 -357.6875 293.6875 C-358.63109375 292.92824219 -359.5746875 292.16898437 -360.546875 291.38671875 C-369.25993932 284.27618237 -377.18145187 276.38187683 -385.125 268.4375 C-385.69316437 267.870242 -386.26132874 267.30298401 -386.84671021 266.71853638 C-393.00893839 260.55519585 -399.05474056 254.34518197 -404.6875 247.6875 C-405.99074219 246.20636719 -405.99074219 246.20636719 -407.3203125 244.6953125 C-419.66663119 230.41383414 -430.22475784 215.00757853 -439.6875 198.6875 C-440.23398193 197.759375 -440.23398193 197.759375 -440.79150391 196.8125 C-453.2981677 175.40268793 -461.74759925 150.31394137 -464.6875 125.6875 C-464.85185547 124.45580078 -464.85185547 124.45580078 -465.01953125 123.19921875 C-469.97113501 79.69112706 -455.46020488 41.37076631 -428.6875 7.6875 C-420.46807938 -2.62294122 -411.51392044 -12.5000789 -401.6875 -21.3125 C-401.3575 -21.3125 -401.0275 -21.3125 -400.6875 -21.3125 C-400.61756836 -20.25264893 -400.54763672 -19.19279785 -400.47558594 -18.10083008 C-396.53105642 40.93491497 -385.89752792 96.16639934 -359.6875 149.6875 C-359.23648926 150.61014648 -358.78547852 151.53279297 -358.32080078 152.48339844 C-345.48821515 178.45308786 -329.38814726 202.58373142 -310.6875 224.6875 C-309.91664063 225.64269531 -309.14578125 226.59789062 -308.3515625 227.58203125 C-301.44006175 236.03451256 -293.82098377 243.76979551 -286.125 251.5 C-285.59447021 252.03570618 -285.06394043 252.57141235 -284.51733398 253.12335205 C-278.31567284 259.37263361 -272.00758321 265.25192355 -265.11499023 270.75024414 C-262.53153183 272.81197022 -260.04039449 274.95585304 -257.55688477 277.13549805 C-237.64255999 294.58902811 -215.63513694 309.96568876 -189.6875 316.6875 C-188.95144531 316.87957031 -188.21539062 317.07164062 -187.45703125 317.26953125 C-175.27910225 319.10738513 -161.87076731 319.42024261 -151.53515625 312.1796875 C-141.71032706 304.31250584 -136.26993649 293.13586545 -134.75 280.75 C-134.20731853 270.26268066 -137.36973328 261.00366165 -143.6875 252.6875 C-150.22921205 245.97834315 -157.63646825 240.83459278 -165.5 235.8125 C-174.4772484 229.9456303 -182.84660675 224.01386958 -190.6875 216.6875 C-192.08935547 215.40552734 -192.08935547 215.40552734 -193.51953125 214.09765625 C-220.25482598 188.63369022 -233.94992621 152.55660421 -235.875 116.140625 C-236.60731269 76.41266139 -221.17856369 39.09955814 -193.82617188 10.48999023 C-143.47204252 -40.97243183 -55.55114303 -46.65152017 0 0 Z " fill="#0088CC" transform="translate(563.6875,31.3125)"/>
<path d="M0 0 C25.08 0 50.16 0 76 0 C76.33 47.19 76.66 94.38 77 143 C78.98 139.37 80.96 135.74 83 132 C94.53099387 115.01968161 109.23749158 101.46082006 129 95 C130.19625 94.608125 131.3925 94.21625 132.625 93.8125 C152.45494034 88.09530271 177.42361974 88.67436921 197 95 C198.16917969 95.37382812 199.33835937 95.74765625 200.54296875 96.1328125 C219.43694457 102.82212164 233.74412179 114.71184047 245 131 C245.56203125 131.78503906 246.1240625 132.57007813 246.703125 133.37890625 C257.93167463 150.36947477 262.19838164 172.57229974 262.12025452 192.63710022 C262.12153615 193.86757533 262.12153615 193.86757533 262.12284368 195.12290853 C262.1244781 197.84506415 262.11901081 200.5671568 262.11352539 203.28930664 C262.11324305 205.25120034 262.11340216 207.21309415 262.1139679 209.17498779 C262.11425405 214.48214614 262.10838674 219.78928175 262.10139394 225.09643483 C262.09513009 230.64977353 262.0945542 236.20311278 262.09336853 241.75645447 C262.09026415 252.26407725 262.0820628 262.77168959 262.07201904 273.27930778 C262.06083017 285.2454301 262.05534046 297.21155293 262.05032361 309.17767918 C262.03987943 333.78512657 262.02154506 358.39255965 262 383 C236.26 383 210.52 383 184 383 C183.96261719 370.18027344 183.92523437 357.36054688 183.88671875 344.15234375 C183.85643314 336.01756743 183.82540206 327.88280519 183.79101562 319.74804688 C183.73660703 306.84400733 183.68519065 293.94000686 183.65356445 281.03588867 C183.63051329 271.63628379 183.59703633 262.2367822 183.55129844 252.83725935 C183.52746187 247.86522991 183.50867063 242.89330215 183.50238609 237.92121696 C183.49629167 233.2303175 183.47613662 228.53967788 183.44572449 223.84887505 C183.43701351 222.13782056 183.43320707 220.42673201 183.43499184 218.71565628 C183.44818112 200.21735952 181.23676659 182.29870278 168.22265625 168.0546875 C156.82514509 157.28648677 142.64521021 155.45333299 127.66015625 155.7578125 C113.84799981 156.3186277 100.56369849 162.0033234 91.0703125 172.21484375 C85.07315831 180.28271344 80.28586958 189.97920221 79 200 C78.86810068 200.9860941 78.86810068 200.9860941 78.73353672 201.9921093 C77.76645852 210.31577504 77.82467331 218.64986074 77.79467773 227.01611328 C77.78508327 228.72200245 77.7750723 230.42788932 77.76467896 232.1337738 C77.73779362 236.73839187 77.71669611 241.34302002 77.69667697 245.94767237 C77.67471565 250.76964786 77.64737689 255.59159286 77.62062073 260.4135437 C77.57083037 269.53280552 77.52584123 278.65208439 77.48259836 287.77137935 C77.42384533 300.10261901 77.35763235 312.4338185 77.29184818 324.76502228 C77.18848729 344.1766544 77.09505615 363.58832132 77 383 C51.59 383 26.18 383 0 383 C0 256.61 0 130.22 0 0 Z " fill="#0088CC" transform="translate(1406,89)"/>
<path d="M0 0 C24.09 0 48.18 0 73 0 C73.84578744 3.38314976 74.14813263 5.887958 74.20532227 9.31933594 C74.2352401 10.91053253 74.2352401 10.91053253 74.26576233 12.53387451 C74.28247482 13.67253967 74.29918732 14.81120483 74.31640625 15.984375 C74.33718735 17.15510559 74.35796844 18.32583618 74.37937927 19.53204346 C74.44475628 23.27130269 74.50370491 27.01063205 74.5625 30.75 C74.60569647 33.2851635 74.64931112 35.82031991 74.69335938 38.35546875 C74.80042559 44.5702384 74.9022141 50.78507778 75 57 C75.79337769 55.48237061 75.79337769 55.48237061 76.6027832 53.93408203 C77.31442022 52.58355573 78.02626394 51.23313834 78.73828125 49.8828125 C79.08475708 49.21870361 79.43123291 48.55459473 79.78820801 47.87036133 C90.63639222 27.35628776 107.89443409 11.45354338 130 4 C158.36344928 -3.88240044 188.76454443 -1.65789637 214.9375 11.9375 C236.60912667 24.46893241 251.1526761 44.88634845 257.76598155 68.84169382 C261.81062584 84.35222338 262.29330086 100.0010779 262.22705078 115.92211914 C262.22648508 117.85563654 262.22680632 119.78915436 262.22793579 121.72267151 C262.22850411 126.91575276 262.21683517 132.10873955 262.20278788 137.30179906 C262.19019269 142.74965119 262.18910315 148.19750604 262.18673706 153.64537048 C262.18054791 163.93670506 262.1641722 174.2279966 262.14403808 184.51931232 C262.12159874 196.24620049 262.11066554 207.97309083 262.10064721 219.69999516 C262.07980339 243.80002605 262.04315962 267.89999803 262 292 C236.26 292 210.52 292 184 292 C183.9906543 286.57046875 183.98130859 281.1409375 183.97167969 275.546875 C183.93786382 257.57765961 183.88248835 239.60855796 183.81609726 221.63943481 C183.77638046 210.74822765 183.74395069 199.85709197 183.72900391 188.96582031 C183.71594914 179.4669359 183.68888736 169.96820928 183.64538693 160.46941376 C183.62285787 155.44534246 183.60708416 150.42146515 183.60811615 145.39733887 C183.60886785 140.6563084 183.59071462 135.91570534 183.55883217 131.17478561 C183.55040088 129.44641448 183.54853645 127.71799501 183.55419731 125.98961258 C183.60483004 108.13471313 181.01010073 90.50332024 168.20703125 77.03515625 C157.85438335 67.48873226 143.40261939 64.14415213 129.57421875 64.6171875 C115.88499773 66.08335543 101.44686584 70.41495755 92 81 C80.64767844 96.25694171 78.70342255 111.18760203 78.68115234 129.65869141 C78.67184127 131.43354747 78.66167087 133.2083992 78.65071106 134.98324585 C78.62352987 139.77588011 78.60829706 144.56848516 78.59528303 149.36117601 C78.57960025 154.3793575 78.55282655 159.39747983 78.5272522 164.4156189 C78.48055528 173.90674275 78.44376729 183.39787786 78.41057932 192.88905752 C78.37229358 203.69927762 78.32290039 214.50943816 78.27259517 225.31960797 C78.16941049 247.54636672 78.0815725 269.77315071 78 292 C52.26 292 26.52 292 0 292 C0 195.64 0 99.28 0 0 Z " fill="#0088CC" transform="translate(1723,180)"/>
<path d="M0 0 C24.09 0 48.18 0 73 0 C73.66 18.48 74.32 36.96 75 56 C77.64 51.05 80.28 46.1 83 41 C84.80124992 38.36833513 86.4798659 35.97911258 88.5 33.5625 C88.97010498 32.98669189 89.44020996 32.41088379 89.92456055 31.81762695 C91.26506757 30.19534128 92.62633673 28.59423223 94 27 C94.65613281 26.22914063 95.31226562 25.45828125 95.98828125 24.6640625 C109.97021912 9.51446815 132.27506295 0.83995038 152.6171875 -0.12402344 C184.17610159 -0.97384792 211.18154224 5.16915052 234.6875 27.375 C256.08332971 49.67065433 261.51930079 79.8721452 261.34057617 109.56469727 C261.33972773 111.56717923 261.34020926 113.56966213 261.34190369 115.57214355 C261.3427566 120.95328061 261.3252461 126.33421282 261.30418181 131.71530271 C261.28529641 137.35933951 261.28365529 143.00338215 261.28010559 148.64744568 C261.27081972 159.31067206 261.24625323 169.97380504 261.21605712 180.63699049 C261.18240484 192.7870799 261.16599999 204.93717402 261.15097082 217.08729851 C261.11970022 242.05826256 261.06473187 267.02909873 261 292 C235.59 292 210.18 292 184 292 C183.95101562 279.46902344 183.90203125 266.93804687 183.8515625 254.02734375 C183.81616491 246.074863 183.78027772 238.12238943 183.7421875 230.16992188 C183.68185887 217.5555995 183.62349298 204.94129054 183.578125 192.3269043 C183.54506862 183.13827066 183.50516316 173.94969594 183.45720994 164.76112753 C183.43207992 159.900899 183.41025965 155.04070887 183.39665604 150.18043327 C183.38371209 145.59464314 183.36152831 141.00898564 183.33261681 136.42326927 C183.32363643 134.75091243 183.31787348 133.07853429 183.31578636 131.40615463 C183.2870566 111.8612711 182.23266522 92.78325485 168.00390625 77.9140625 C157.16467261 67.51921812 144.08898136 64.45784931 129.390625 64.75390625 C113.86740416 65.88059163 100.54017157 71.3681678 90 83 C78.56425133 98.23123422 77.70404451 116.21997177 77.68115234 134.5402832 C77.67183366 136.2663214 77.66166217 137.99235517 77.65071106 139.71838379 C77.62361546 144.36415069 77.60832291 149.00988762 77.59528303 153.65571237 C77.57956219 158.52573311 77.55280092 163.39569346 77.5272522 168.26567078 C77.48062195 177.46982485 77.443802 186.67399049 77.41057932 195.87820166 C77.36506642 208.32846125 77.30425152 220.77864572 77.24433136 233.22884274 C77.15044741 252.81919068 77.07688079 272.40956086 77 292 C51.59 292 26.18 292 0 292 C0 195.64 0 99.28 0 0 Z " fill="#0088CC" transform="translate(2638,180)"/>
<path d="M0 0 C1.04542969 0.75023437 2.09085938 1.50046875 3.16796875 2.2734375 C32.59090549 23.89533047 49.97253096 56.37892507 55.52734375 92.24609375 C55.68332031 93.48488281 55.83929687 94.72367187 56 96 C56.27263672 97.92779297 56.27263672 97.92779297 56.55078125 99.89453125 C60.8690746 140.12869951 54.63900959 183.88670398 30 217 C26.68264521 221.0803574 23.08734602 224.87285254 19.38134766 228.59960938 C18.13875373 229.85933344 16.93210933 231.1542777 15.73046875 232.453125 C-4.5931085 254.02100289 -36.72390311 266.57105413 -66.04263306 268.10700989 C-68.17078812 268.16313222 -70.29692785 268.19028439 -72.42578125 268.203125 C-73.5972747 268.21371445 -73.5972747 268.21371445 -74.79243469 268.22451782 C-107.49776255 268.45312277 -107.49776255 268.45312277 -121 265 C-121.79921875 264.80132324 -122.5984375 264.60264648 -123.421875 264.39794922 C-155.45508395 256.19926556 -183.23133435 237.92818027 -201.125 209.75 C-202.44180418 207.51461871 -203.73267946 205.26380242 -205 203 C-205.33773438 202.39704102 -205.67546875 201.79408203 -206.0234375 201.17285156 C-227.43497735 162.35437377 -229.15165885 112.07475098 -217 70 C-210.24951972 49.41176732 -199.89377733 31.76686083 -185 16 C-184.31421875 15.24976563 -183.6284375 14.49953125 -182.921875 13.7265625 C-139.20431303 -32.41975291 -50.61057953 -36.43961726 0 0 Z M-119 50 C-119.65484375 50.55042969 -120.3096875 51.10085937 -120.984375 51.66796875 C-135.89411426 65.21965036 -141.55441769 86.75106216 -144 106 C-144.23977042 111.28875427 -144.24569504 116.58135701 -144.25 121.875 C-144.25067474 122.6164325 -144.25134949 123.35786499 -144.25204468 124.12176514 C-144.21439646 150.11733089 -138.80214994 175.8090316 -120 195 C-107.43384425 205.68027021 -93.30103014 209.10350957 -77.07128906 208.19091797 C-62.61288415 206.85823614 -51.2388066 200.22922803 -41.3515625 189.85546875 C-22.14602511 166.53445906 -20.1275692 134.07382496 -22.20214844 105.18505859 C-24.46629413 83.70985032 -32.51487427 62.05551199 -49.4453125 47.96484375 C-69.75970568 32.96785443 -99.72229574 33.03076033 -119 50 Z " fill="#0088CC" transform="translate(1305,203)"/>
<path d="M0 0 C1.53328364 1.37069861 3.05167539 2.75598507 4.56542969 4.14819336 C5.438125 4.93838867 6.31082031 5.72858398 7.20996094 6.54272461 C27.68214292 25.98323758 39.60440528 52.64222708 44.56542969 80.14819336 C44.74275635 81.10491943 44.92008301 82.06164551 45.1027832 83.04736328 C46.70529727 92.74446329 46.90483913 102.29513771 46.88110352 112.10498047 C46.87795437 114.8144604 46.9014552 117.52283257 46.92675781 120.23217773 C46.98324847 135.61265544 45.33557089 150.71660382 41.00292969 165.52319336 C40.75462402 166.37840576 40.50631836 167.23361816 40.25048828 168.11474609 C29.84998562 202.00753092 6.9702329 229.61261413 -24.28515625 246.25878906 C-42.1464631 255.24590843 -62.89266356 260.23101946 -82.86035156 260.35131836 C-83.64148315 260.35833267 -84.42261475 260.36534698 -85.22741699 260.37257385 C-87.73402735 260.38998346 -90.24040172 260.39642572 -92.74707031 260.39819336 C-93.60182953 260.3988681 -94.45658875 260.39954285 -95.33724976 260.40023804 C-107.58982657 260.3848383 -119.490753 260.15615718 -131.43457031 257.14819336 C-132.14194336 256.97658691 -132.84931641 256.80498047 -133.578125 256.62817383 C-154.23354777 251.48041925 -173.7033582 242.26467248 -189.10253906 227.37475586 C-191.40022713 225.10833962 -191.40022713 225.10833962 -193.97363281 223.15991211 C-218.73564562 202.91794925 -229.4808345 166.66748892 -233.21769714 136.32232666 C-233.5689198 132.80135231 -233.61629691 129.29384448 -233.63769531 125.75756836 C-233.64470963 124.97926163 -233.65172394 124.2009549 -233.65895081 123.39906311 C-233.67637045 120.89871375 -233.68280375 118.39860118 -233.68457031 115.89819336 C-233.68524506 115.0443808 -233.6859198 114.19056824 -233.68661499 113.31088257 C-233.67074949 100.69039537 -233.26917655 88.49601467 -230.43457031 76.14819336 C-230.17716064 74.96652588 -230.17716064 74.96652588 -229.91455078 73.76098633 C-227.36482638 62.27925149 -223.62046199 51.69471872 -218.43457031 41.14819336 C-217.87769531 40.00608398 -217.32082031 38.86397461 -216.74707031 37.68725586 C-202.55270192 10.02138042 -177.09966998 -12.54788232 -147.54003906 -22.57446289 C-99.16940193 -38.0487903 -39.64047634 -34.56310648 0 0 Z M-133.68457031 45.95678711 C-153.206288 70.40250948 -156.9634141 102.23312308 -153.97363281 132.59350586 C-151.19190982 155.43488478 -143.06640009 175.76441311 -125.18457031 190.96069336 C-112.82172353 200.15135098 -97.02069725 201.77190236 -82.14550781 199.68725586 C-67.25905541 196.34860558 -55.4311537 188.57096693 -47.05566406 175.82397461 C-42.5526782 168.3913353 -39.17016704 160.96295131 -36.68457031 152.64819336 C-36.48589355 151.98489014 -36.2872168 151.32158691 -36.08251953 150.63818359 C-32.77178096 138.89456551 -32.02739834 127.27946511 -32.05957031 115.14819336 C-32.06011414 114.3763974 -32.06065796 113.60460144 -32.06121826 112.80941772 C-32.10086306 100.55774753 -32.83890306 88.93946442 -36.43457031 77.14819336 C-36.64887695 76.43195801 -36.86318359 75.71572266 -37.08398438 74.9777832 C-42.12711515 58.72891862 -51.48977768 43.78299603 -66.74707031 35.43334961 C-88.5594353 25.0027274 -116.71181945 27.7192399 -133.68457031 45.95678711 Z " fill="#0088CC" transform="translate(2546.4345703125,210.851806640625)"/>
<path d="M0 0 C0.71027344 0.54914063 1.42054688 1.09828125 2.15234375 1.6640625 C16.66696725 13.33324496 25.43946251 31.00500854 29 49 C15.38944314 51.7966382 1.74865422 54.34885043 -11.94238281 56.71972656 C-15.05351662 57.25928123 -18.16348254 57.8052584 -21.2734375 58.3515625 C-23.26555866 58.69829801 -25.25774374 59.04466657 -27.25 59.390625 C-28.63421143 59.63428802 -28.63421143 59.63428802 -30.04638672 59.88287354 C-30.90248535 60.03012878 -31.75858398 60.17738403 -32.640625 60.32910156 C-33.38860352 60.45915588 -34.13658203 60.58921021 -34.90722656 60.72320557 C-37 61 -37 61 -41 61 C-41.45890625 60.04738281 -41.9178125 59.09476562 -42.390625 58.11328125 C-43.01008974 56.84619428 -43.62989981 55.5792761 -44.25 54.3125 C-44.70052734 53.37374023 -44.70052734 53.37374023 -45.16015625 52.41601562 C-50.28293559 42.006964 -58.59393714 35.71090614 -69.44921875 31.77734375 C-85.51684947 26.88077635 -103.38331855 27.6277299 -118.625 34.875 C-122.82971623 37.15514142 -125.98147243 39.29986943 -129 43 C-129.76183594 43.91845703 -129.76183594 43.91845703 -130.5390625 44.85546875 C-133.87062893 49.74592321 -134.47941477 55.94713937 -133.4375 61.6875 C-131.57792755 68.24797921 -128.36922013 72.37219998 -122.6875 76.125 C-105.69182435 85.24377211 -85.31341382 87.27624196 -66.57220459 90.85314941 C4.60874208 104.44705951 4.60874208 104.44705951 23.86328125 130.5234375 C32.46329835 143.37742452 36.40643155 156.36428515 36.3125 171.75 C36.30758545 172.71083496 36.3026709 173.67166992 36.29760742 174.66162109 C35.91619477 197.96495585 25.8766715 216.1001621 9.66015625 232.34375 C3.37193198 238.29565109 -3.4638596 242.77283159 -11 247 C-12.08023438 247.6084375 -13.16046875 248.216875 -14.2734375 248.84375 C-52.65807174 269.24397519 -105.4234781 270.66912622 -146.56176758 258.47192383 C-163.84133598 253.03563657 -179.36792852 245.0474517 -193 233 C-193.62390625 232.45988281 -194.2478125 231.91976563 -194.890625 231.36328125 C-207.68658884 219.49412788 -216.85415538 202.13736308 -220 185 C-220 183.68 -220 182.36 -220 181 C-210.92545047 179.43245514 -201.85044293 177.86759725 -192.77483654 176.30618286 C-188.56084275 175.58109827 -184.34701358 174.85508359 -180.13354492 174.12695312 C-176.06852808 173.42451171 -172.0030996 172.72450066 -167.93737221 172.02618408 C-166.38506422 171.75912275 -164.83290746 171.49118094 -163.28090477 171.22235107 C-161.10978082 170.84643396 -158.9381439 170.47363002 -156.76635742 170.1015625 C-155.52947678 169.88838379 -154.29259613 169.67520508 -153.01823425 169.45556641 C-150 169 -150 169 -147 169 C-146.5978125 170.21623047 -146.5978125 170.21623047 -146.1875 171.45703125 C-141.56788046 184.51049567 -134.71959058 195.18514337 -122.04296875 201.46484375 C-104.21697443 209.20065261 -83.69964195 210.51111526 -65.125 204.25 C-57.33958436 201.12887212 -49.73241299 196.84210476 -46.06640625 189.00390625 C-43.6022073 182.68460494 -43.27798795 177.19740437 -45.875 170.8671875 C-51.2809455 160.9938287 -61.85782297 157.38669094 -72 154 C-77.07141357 152.67841786 -82.18784535 151.6366521 -87.328125 150.625 C-88.77121854 150.33143188 -90.21406467 150.03664525 -91.65667725 149.74072266 C-95.42273141 148.97052957 -99.19108654 148.21237371 -102.96038818 147.45825195 C-150.75497834 137.89245389 -150.75497834 137.89245389 -165.25 131.25 C-166.36048706 130.74847412 -166.36048706 130.74847412 -167.4934082 130.23681641 C-174.59377591 126.91630748 -180.79609903 122.78123573 -187 118 C-187.67160156 117.51144531 -188.34320312 117.02289063 -189.03515625 116.51953125 C-202.79288651 105.83300274 -210.18345484 88.38188271 -212.46875 71.546875 C-214.44355359 50.45238208 -210.30677225 29.76787764 -197.125 12.8125 C-175.83334205 -12.67296937 -144.29945795 -23.85649901 -111.91601562 -26.8190918 C-73.05791922 -29.22982936 -30.99752263 -26.0980707 0 0 Z " fill="#0088CC" transform="translate(2247,207)"/>
<path d="M0 0 C26.07 0 52.14 0 79 0 C79.04416809 34.32778138 79.08106663 68.65553497 79.10213066 102.98333626 C79.10463179 107.04463633 79.10722046 111.10593634 79.10986328 115.16723633 C79.11065021 116.37993131 79.11065021 116.37993131 79.11145304 117.61712518 C79.12013354 130.67314883 79.13589041 143.72915471 79.15430559 156.78516785 C79.17307041 170.20189572 79.18413058 183.61861434 79.18817699 197.03535479 C79.19090846 205.30077413 79.19950598 213.5661432 79.21583293 221.83154704 C79.22648125 227.51492251 79.22958306 233.19827234 79.22700275 238.88165704 C79.22573354 242.15080478 79.22867551 245.41984802 79.23841095 248.68898392 C79.33610378 283.21189204 76.47279055 316.62321102 53 344 C52.33291016 344.88365234 52.33291016 344.88365234 51.65234375 345.78515625 C35.09019806 367.20958325 4.96117749 377.95715127 -20.83203125 381.52734375 C-22.22052134 381.69207415 -23.60993357 381.84914861 -25 382 C-25.82346924 382.0920874 -26.64693848 382.1841748 -27.49536133 382.27905273 C-64.55102789 386.06202114 -107.49292799 381.70638209 -137.6875 357.75 C-139.48031956 356.19160558 -141.25050862 354.60688364 -143 353 C-143.49097168 352.55672363 -143.98194336 352.11344727 -144.48779297 351.65673828 C-159.08442003 338.35635466 -168.66320988 321.5858361 -173.8125 302.5625 C-174.0074707 301.84876221 -174.20244141 301.13502441 -174.40332031 300.3996582 C-179.26360582 281.01637673 -178 261.99667941 -178 242 C-151.6 242 -125.2 242 -98 242 C-97.67 253.88 -97.34 265.76 -97 278 C-93.48386309 292.06454762 -89.92733279 303.66555364 -77.3125 311.71484375 C-62.44097025 319.80321565 -46.42043203 320.90448242 -30.328125 316.22265625 C-19.67509544 312.36837692 -11.68015951 305.29898302 -6.59375 295.2109375 C-1.94529057 284.75190378 -0.70034298 274.60224423 -0.7215271 263.23713684 C-0.7128385 261.53857348 -0.7128385 261.53857348 -0.70397437 259.80569571 C-0.68706971 256.03946101 -0.68410608 252.27334955 -0.68115234 248.50708008 C-0.67294159 245.79612428 -0.66176427 243.08518257 -0.65071106 240.37423706 C-0.6285159 234.55219347 -0.61345625 228.73016723 -0.60334396 222.90809059 C-0.58871313 214.49051481 -0.56316416 206.07299951 -0.53501268 197.65545937 C-0.48962442 183.99615239 -0.45297681 170.33683667 -0.421875 156.67749023 C-0.39165674 143.41445379 -0.35729149 130.15143871 -0.31738281 116.88842773 C-0.31492126 116.06989391 -0.31245972 115.25136008 -0.30992357 114.4080222 C-0.29754834 110.30137938 -0.28509193 106.19473681 -0.27259517 102.08809435 C-0.16914673 68.05875491 -0.08152342 34.02940079 0 0 Z " fill="#0088CC" transform="translate(958,88)"/>
<path d="M0 0 C76.69074492 0 76.69074492 0 96 14 C96.63292969 14.43699219 97.26585938 14.87398437 97.91796875 15.32421875 C112.17317984 26.18688532 118.36100777 45.38841977 120.6875 62.375 C122.62874856 84.53758769 119.70810849 107.69598251 105.86328125 125.79296875 C94.45405651 138.95439555 81.11820621 145.93164228 64 149 C42.71131839 150.41924544 21.33593734 150 0 150 C0 100.5 0 51 0 0 Z M24 21 C24 56.64 24 92.28 24 129 C56.84378304 130.50415058 56.84378304 130.50415058 84.3125 116.375 C94.85465696 105.01193738 97.53500827 89.96966243 97.375 75 C97.38660156 73.91460938 97.39820312 72.82921875 97.41015625 71.7109375 C97.37455847 61.7672923 95.70611657 52.44326273 91.0625 43.5625 C90.33740234 42.14130859 90.33740234 42.14130859 89.59765625 40.69140625 C83.58708515 30.56601875 74.17279104 25.07417031 63 22 C50.17266432 19.86211072 37.0042728 21 24 21 Z " fill="#0088CC" transform="translate(2328,522)"/>
<path d="M0 0 C3.33081185 2.86132599 5.60587913 6.12571046 8.05078125 9.76171875 C8.38078125 4.81171875 8.71078125 -0.13828125 9.05078125 -5.23828125 C16.64078125 -5.23828125 24.23078125 -5.23828125 32.05078125 -5.23828125 C32.09605606 9.41822083 32.13284458 24.07467901 32.15440559 38.7312355 C32.16468609 45.53764615 32.17868414 52.34401002 32.20166016 59.15039062 C32.22384331 65.72507296 32.23536721 72.29972506 32.24053574 78.87444305 C32.24421676 81.37651074 32.25140471 83.87857593 32.26224136 86.38062286 C32.27686549 89.89866261 32.27875463 93.41650482 32.27783203 96.93457031 C32.28502258 97.95741119 32.29221313 98.98025208 32.29962158 100.03408813 C32.26184816 113.43950082 30.19123968 126.32917942 20.92578125 136.63671875 C7.42527091 148.80201378 -10.19309153 149.62722229 -27.36962891 148.92578125 C-39.02498068 148.18449823 -51.49695799 143.46542664 -59.48046875 134.69921875 C-65.94921875 126.16597407 -65.94921875 126.16597407 -65.94921875 121.76171875 C-59.67921875 119.45171875 -53.40921875 117.14171875 -46.94921875 114.76171875 C-42.94921875 118.76171875 -42.94921875 118.76171875 -41.32421875 121.19921875 C-36.67405003 126.21650605 -29.77837233 129.32581533 -22.94921875 129.76171875 C-22.29695313 129.81199219 -21.6446875 129.86226562 -20.97265625 129.9140625 C-12.98340128 130.26694479 -5.31329865 128.69008431 1.05078125 123.76171875 C1.71078125 123.76171875 2.37078125 123.76171875 3.05078125 123.76171875 C7.59474652 115.37285978 8.45843471 108.70009258 8.23828125 99.26171875 C8.22474609 98.153125 8.21121094 97.04453125 8.19726562 95.90234375 C8.16217006 93.18828643 8.11300395 90.47526682 8.05078125 87.76171875 C7.47070312 88.4371875 6.890625 89.11265625 6.29296875 89.80859375 C0.10691212 96.8725396 -5.32277161 103.00690237 -15.20874023 103.98535156 C-28.53673183 104.5844795 -41.32535868 104.43527939 -52.078125 95.515625 C-64.91540347 83.48235144 -70.02378934 70.03038405 -70.87670898 52.67138672 C-71.4089249 35.50070367 -67.73866006 18.42456746 -55.84765625 5.47265625 C-40.58466535 -8.92740936 -17.59071389 -12.40410908 0 0 Z M-39.32421875 20.94921875 C-48.019565 32.18173402 -47.85959716 46.27038021 -46.94921875 59.76171875 C-45.51447283 68.49813338 -41.712672 75.03879677 -34.94921875 80.76171875 C-28.03575737 85.6770699 -20.1477477 85.66526892 -11.94921875 84.76171875 C-4.28377499 83.03413366 0.75065773 78.16822332 5.05078125 71.76171875 C9.01729605 64.5661257 9.40912793 57.17926168 9.48828125 49.13671875 C9.49859375 48.2662793 9.50890625 47.39583984 9.51953125 46.49902344 C9.38398834 36.51779413 6.76293674 27.32552408 0.05078125 19.76171875 C-11.91915195 10.02208079 -28.20728674 9.27920554 -39.32421875 20.94921875 Z " fill="#0088CC" transform="translate(2586.94921875,566.23828125)"/>
<path d="M0 0 C7.84222689 6.00139882 12.69741938 12.55303236 14.9375 22.25 C15.62012314 28.63074732 15.40485974 35.07424646 15.328125 41.48046875 C15.32065101 43.32562136 15.31496356 45.170782 15.31097412 47.01594543 C15.29580882 51.83784468 15.25660712 56.65925069 15.2121582 61.48095703 C15.17100747 66.41497122 15.15292109 71.34906625 15.1328125 76.28320312 C15.09010256 85.93905203 15.01982886 95.59440755 14.9375 105.25 C7.6775 105.25 0.4175 105.25 -7.0625 105.25 C-7.3925 101.29 -7.7225 97.33 -8.0625 93.25 C-9.031875 94.466875 -10.00125 95.68375 -11 96.9375 C-17.8101369 104.67940614 -25.99452918 107.7405967 -36.09765625 108.46875 C-47.83981824 108.80464021 -58.68224713 106.65722285 -68.0625 99.25 C-74.28974053 92.89110533 -77.42689371 85.41699604 -77.47265625 76.5390625 C-77.46105469 75.78367187 -77.44945313 75.02828125 -77.4375 74.25 C-77.45490234 73.11691406 -77.45490234 73.11691406 -77.47265625 71.9609375 C-77.43539632 64.73251155 -75.81629172 58.28289898 -70.5625 53.0625 C-58.81867215 42.15293315 -41.92654179 41.01749214 -26.7277832 39.42724609 C-20.50018996 38.73342892 -14.91022471 37.51860883 -9.0625 35.25 C-7.67827333 29.33557694 -8.08234702 24.64458201 -11.0625 19.25 C-16.10433206 14.12312498 -21.23632072 13.09671136 -28.25 12.9375 C-36.43888172 13.00183465 -43.18737921 15.37487921 -49.0625 21.25 C-50.87229141 24.36662908 -50.87229141 24.36662908 -52.0625 27.25 C-59.19643752 26.73462048 -66.08062817 25.80994099 -73.0625 24.25 C-73.97125448 21.75806946 -74.14643372 20.51968869 -73.34765625 17.953125 C-67.84511446 6.9128814 -60.54402579 0.75558653 -49.0625 -3.75 C-33.59113212 -8.86211033 -14.25102653 -8.85547659 0 0 Z M-16.1875 54.5625 C-21.00269427 55.63032547 -25.79692681 56.55344558 -30.66674805 57.33032227 C-42.73911561 59.16186346 -42.73911561 59.16186346 -52.5625 65.875 C-55.17976857 70.01900857 -55.58674825 73.3913421 -55.0625 78.25 C-52.96929518 82.8550506 -50.12658411 86.41052556 -45.3828125 88.33984375 C-37.10810079 90.60808825 -27.57429543 90.56968569 -19.921875 86.44140625 C-19.00148438 85.85166016 -19.00148438 85.85166016 -18.0625 85.25 C-17.49015625 84.88777344 -16.9178125 84.52554688 -16.328125 84.15234375 C-11.16892639 80.38510714 -8.16938633 74.46809673 -7.0625 68.25 C-6.99351758 65.65626086 -6.96815248 63.09189803 -7 60.5 C-7.00451172 59.80261719 -7.00902344 59.10523438 -7.01367188 58.38671875 C-7.0253998 56.67444197 -7.04333347 54.96220967 -7.0625 53.25 C-10.32067507 53.25 -13.00841277 53.84333294 -16.1875 54.5625 Z " fill="#0088CC" transform="translate(2838.0625,565.75)"/>
<path d="M0 0 C7.59 0 15.18 0 23 0 C23 8.91 23 17.82 23 27 C30.26 27 37.52 27 45 27 C45 32.94 45 38.88 45 45 C37.74 45 30.48 45 23 45 C23.06295794 53.64958553 23.13840128 62.29881625 23.23571491 70.94808483 C23.2804068 74.96447422 23.31966535 78.98076246 23.34643555 82.99731445 C23.37248061 86.87489304 23.41289101 90.75208212 23.46318626 94.62941933 C23.47984695 96.10730449 23.49136622 97.58525702 23.49761391 99.06322289 C23.50726415 101.13655624 23.5353317 103.20889496 23.56762695 105.28198242 C23.58428154 107.05069954 23.58428154 107.05069954 23.60127258 108.85514832 C24.0400599 112.31596131 24.92678916 114.22016526 27 117 C30.06533164 118.53266582 33.26754272 118.10276471 36.625 118.0625 C37.68460938 118.05573242 37.68460938 118.05573242 38.765625 118.04882812 C40.51045275 118.03703875 42.255237 118.01910324 44 118 C45.7899856 124.3246158 46.54240047 130.4491015 47 137 C39.91779174 140.54110413 27.01028946 139.57466318 19.49609375 137.84765625 C12.27395506 135.39506768 6.78460752 131.88437553 2.9375 125.22265625 C0.60835147 119.70063327 -0.2483418 114.65987607 -0.22705078 108.68774414 C-0.22734283 107.99421844 -0.22763489 107.30069275 -0.22793579 106.58615112 C-0.22655474 104.31902059 -0.21105222 102.05222858 -0.1953125 99.78515625 C-0.191578 98.20332519 -0.18873309 96.6214918 -0.18673706 95.03965759 C-0.17913501 90.89518747 -0.15951633 86.7508596 -0.1373291 82.60644531 C-0.11679647 78.36981124 -0.10771954 74.13315397 -0.09765625 69.89648438 C-0.07626688 61.59758399 -0.04111304 53.29882613 0 45 C-5.61 45 -11.22 45 -17 45 C-17 39.06 -17 33.12 -17 27 C-11.39 27 -5.78 27 0 27 C0 18.09 0 9.18 0 0 Z " fill="#0088CC" transform="translate(2701,534)"/>
<path d="M0 0 C7.26 0 14.52 0 22 0 C22 49.17 22 98.34 22 149 C14.74 149 7.48 149 0 149 C0 99.83 0 50.66 0 0 Z " fill="#0088CC" transform="translate(2881,522)"/>
<path d="M0 0 C-0.165 1.0725 -0.33 2.145 -0.5 3.25 C-3.05674617 24.96326225 6.20016321 42.0333016 17.83740234 59.61499023 C21.12278525 64.59014628 24.23235179 69.63399989 27.1875 74.8125 C27.57413818 75.47636719 27.96077637 76.14023438 28.35913086 76.82421875 C30.28093938 80.24155499 31 81.98280836 31 86 C20.94166137 87.40816741 11.91193722 81.3322721 4.09667969 75.54345703 C1.90121971 73.85087153 -0.24939143 72.10974383 -2.38330078 70.34033203 C-3.96071219 69.03257174 -5.55539874 67.74862354 -7.15234375 66.46484375 C-14.46223952 60.48342009 -21.25665172 53.96746886 -27.96731567 47.32922363 C-29.39883326 45.91324696 -30.83593984 44.50292764 -32.27319336 43.09277344 C-47.08177955 28.26958181 -47.08177955 28.26958181 -47.75 20.4375 C-47.10803583 13.43762143 -43.32928312 7.96848515 -38.375 3.1875 C-26.38513602 -6.48537338 -13.56777302 -5.30398107 0 0 Z " fill="#0088CC" transform="translate(602,140)"/>
<path d="M0 0 C7.26 0 14.52 0 22 0 C22 36.3 22 72.6 22 110 C14.74 110 7.48 110 0 110 C0 73.7 0 37.4 0 0 Z " fill="#0088CC" transform="translate(2647,561)"/>
<path d="M0 0 C7.26 0 14.52 0 22 0 C22 36.3 22 72.6 22 110 C14.74 110 7.48 110 0 110 C0 73.7 0 37.4 0 0 Z " fill="#0088CC" transform="translate(2473,561)"/>
<path d="M0 0 C4.18110801 1.86656608 5.60064569 3.33011536 7.9375 7.25 C9.49749679 12.75587102 9.29516845 16.66869678 6.4375 21.8125 C2.71651668 25.15184401 -1.06815634 26.81332831 -6.0859375 27.1328125 C-11.47300685 26.78193059 -14.307001 24.86885609 -18 21 C-20.47037796 17.13332146 -20.16515022 13.55153275 -19.54296875 9.15234375 C-18.57310765 5.30778642 -16.53564938 2.94270884 -13.19921875 0.89453125 C-8.95331501 -0.83248821 -4.49165395 -0.51426183 0 0 Z " fill="#0088CC" transform="translate(2664,518)"/>
<path d="M0 0 C4.18110801 1.86656608 5.60064569 3.33011536 7.9375 7.25 C9.49749679 12.75587102 9.29516845 16.66869678 6.4375 21.8125 C2.71651668 25.15184401 -1.06815634 26.81332831 -6.0859375 27.1328125 C-11.47300685 26.78193059 -14.307001 24.86885609 -18 21 C-20.47037796 17.13332146 -20.16515022 13.55153275 -19.54296875 9.15234375 C-18.57310765 5.30778642 -16.53564938 2.94270884 -13.19921875 0.89453125 C-8.95331501 -0.83248821 -4.49165395 -0.51426183 0 0 Z " fill="#0088CC" transform="translate(2490,518)"/>
</svg>
