<?xml version="1.0" encoding="UTF-8"?>
<svg version="1.1" xmlns="http://www.w3.org/2000/svg" width="1474" height="1480">
<path d="M0 0 C0.89117523 -0.00358521 1.78235046 -0.00717041 2.70053101 -0.01086426 C19.84527427 -0.04801301 36.90378112 1.13115564 53.8125 4.0625 C54.80016357 4.23241455 55.78782715 4.4023291 56.80541992 4.57739258 C115.93024403 15.10659854 171.34398879 41.0538224 216.0625 81.3125 C216.89322021 82.05862549 216.89322021 82.05862549 217.74072266 82.81982422 C228.03533932 92.1061591 238.18958587 101.63700174 247.0625 112.3125 C247.72258057 113.10188965 247.72258057 113.10188965 248.39599609 113.90722656 C280.31584572 152.19431773 311.49856323 196.08041303 306.79882812 248.23876953 C304.19384479 272.18115521 304.19384479 272.18115521 300.0625 276.3125 C264.89940809 276.51435472 232.87261271 261.80408059 208.0625 237.3125 C198.88552482 228.15049542 184.56479111 212.19089177 183.875 198.625 C183.936875 197.531875 183.99875 196.43875 184.0625 195.3125 C183.0111856 189.76920589 181.40188302 186.92865252 177.0625 183.3125 C172.55682177 180.61477249 168.17996243 180.6728172 163.0625 181.3125 C157.91638871 183.69495893 155.02973472 187.07390866 153.0625 192.3125 C152.31919777 197.42270283 153.44351827 200.88976482 155.6015625 205.41796875 C157.07409795 207.56141822 157.07409795 207.56141822 160.015625 209.11328125 C163.63308386 211.72434451 164.81204587 214.22543629 166.1875 218.3125 C166.43193848 219.01761719 166.67637695 219.72273437 166.92822266 220.44921875 C167.68454592 222.72563755 168.38429551 225.01165727 169.0625 227.3125 C169.38444336 228.3953125 169.38444336 228.3953125 169.71289062 229.5 C175.79216018 251.11518062 175.41862582 276.85858742 169.0625 298.3125 C168.72347656 299.56933594 168.38445312 300.82617188 168.03515625 302.12109375 C163.417673 317.64964062 155.28441169 331.82124498 145.0625 344.3125 C144.24652344 345.45912109 144.24652344 345.45912109 143.4140625 346.62890625 C141.9375 348.625 141.9375 348.625 139.0625 351.3125 C133.61586728 351.12010981 129.26048304 349.29271697 124.5 346.8125 C123.45791382 346.27629028 123.45791382 346.27629028 122.39477539 345.72924805 C86.518407 326.93141951 67.05124933 298.62178242 54.76025391 260.7800293 C49.43834244 244.46974563 43.22935938 230.52242919 32.0625 217.3125 C31.21816406 216.30316406 30.37382813 215.29382813 29.50390625 214.25390625 C6.03358856 187.43566806 -28.58497144 171.2285436 -63.9375 168.3125 C-89.63954642 166.7146708 -114.59705301 173.18427814 -134.4375 190.09375 C-154.14155259 207.58109667 -162.53406624 230.50670134 -164.125 256.359375 C-164.85322888 289.31173176 -152.99181803 322.01803085 -138.9375 351.3125 C-138.5971875 352.02486816 -138.256875 352.73723633 -137.90625 353.47119141 C-108.5169228 414.58893776 -58.50704745 458.37666919 5.43981934 481.15948486 C13.70529388 484.04974677 22.00840468 486.82985839 30.30883789 489.61767578 C55.82300907 498.19888646 80.79653057 507.74992888 105.25195312 519.01806641 C107.74055732 520.16422515 110.23569887 521.29400247 112.734375 522.41796875 C143.77851035 536.52209492 173.44824971 555.01490861 200.0625 576.3125 C200.69784668 576.8178125 201.33319336 577.323125 201.98779297 577.84375 C209.68292003 583.97479689 217.23368399 590.19225351 224.4375 596.8984375 C226.45809508 598.75666333 228.50340342 600.54300537 230.58984375 602.32421875 C235.95044126 606.99949474 240.94542212 612.04577397 245.96264648 617.08227539 C247.6217732 618.74676277 249.28618051 620.40583447 250.95117188 622.06445312 C256.53230399 627.64172863 261.95921016 633.29004042 267.0625 639.3125 C268.10729031 640.50443473 269.15415956 641.69455045 270.203125 642.8828125 C277.44820186 651.1472856 284.38351023 659.58538174 291.0625 668.3125 C291.52446777 668.91078613 291.98643555 669.50907227 292.46240234 670.12548828 C306.52859849 688.36766175 319.24279588 707.54914344 331.0625 727.3125 C331.55282715 728.12944336 332.0431543 728.94638672 332.54833984 729.78808594 C372.0983416 796.11384797 399.62494774 874.61858334 401.0625 952.3125 C401.08296387 953.20678711 401.10342773 954.10107422 401.12451172 955.02246094 C402.26079359 1011.53604996 391.30568227 1067.73778215 366.37695312 1118.62646484 C365.10955014 1121.21635482 363.87270945 1123.81894464 362.640625 1126.42578125 C353.3399485 1145.84391833 341.83254741 1164.00367543 329.0625 1181.3125 C328.55444824 1182.00456543 328.04639648 1182.69663086 327.52294922 1183.40966797 C321.26998335 1191.90829316 314.84970385 1200.23082944 308.0625 1208.3125 C307.63614258 1208.82377441 307.20978516 1209.33504883 306.77050781 1209.86181641 C301.17311221 1216.57345238 295.47198572 1223.15635083 289.546875 1229.58203125 C287.62318152 1231.69627928 285.74862996 1233.83360558 283.88354492 1235.99853516 C280.22412229 1240.18415997 276.37766151 1244.14221241 272.44140625 1248.06640625 C271.73781479 1248.77095444 271.03422333 1249.47550262 270.30931091 1250.20140076 C268.83235352 1251.67903367 267.35415258 1253.15542457 265.87475586 1254.63061523 C263.63084915 1256.86916481 261.39233296 1259.11300473 259.15429688 1261.35742188 C257.70865382 1262.80240404 256.26270055 1264.24707592 254.81640625 1265.69140625 C253.82852867 1266.68232018 253.82852867 1266.68232018 252.82069397 1267.69325256 C248.93627458 1271.55846479 244.94314592 1275.24335643 240.79205322 1278.82106018 C238.5727696 1280.73480757 236.41277953 1282.71031801 234.25 1284.6875 C230.0080915 1288.51164478 225.65698903 1292.16139455 221.21484375 1295.75 C218.87390119 1297.64270913 216.56000788 1299.56500175 214.25390625 1301.5 C204.56695215 1309.6057858 194.61546422 1317.23482511 184.37841797 1324.63183594 C182.2011249 1326.21189977 180.03809711 1327.80938995 177.87890625 1329.4140625 C147.01045802 1352.23081821 113.8061762 1372.09468055 80.0625 1390.3125 C79.04687988 1390.86357422 78.03125977 1391.41464844 76.98486328 1391.98242188 C40.297683 1411.79790002 1.52183606 1427.9185643 -37.9375 1441.3125 C-39.0601123 1441.6935791 -40.18272461 1442.0746582 -41.33935547 1442.46728516 C-92.13554387 1459.55466572 -144.50824087 1470.63908579 -197.75 1476.5625 C-198.43051422 1476.63981354 -199.11102844 1476.71712708 -199.81216431 1476.79678345 C-226.3027829 1479.75811914 -252.93396723 1480.70193298 -279.57136917 1480.63055801 C-281.73669764 1480.62487078 -283.90201811 1480.6220794 -286.06735229 1480.61947632 C-311.10896849 1480.57586749 -336.00418384 1479.76715991 -360.9375 1477.3125 C-361.82425415 1477.22528687 -362.7110083 1477.13807373 -363.62463379 1477.04821777 C-447.3602968 1468.69153745 -528.61958227 1445.72968627 -608.9375 1411.3125 C-608.9375 1410.9825 -608.9375 1410.6525 -608.9375 1410.3125 C-608.1287442 1410.30663376 -607.3199884 1410.30076752 -606.48672485 1410.29472351 C-550.63680879 1410.02749295 -550.63680879 1410.02749295 -494.9375 1406.3125 C-493.84725525 1406.20518555 -493.84725525 1406.20518555 -492.73498535 1406.09570312 C-433.48163221 1400.24319463 -374.67444658 1388.38721528 -317.9375 1370.3125 C-317.25167847 1370.09484985 -316.56585693 1369.87719971 -315.85925293 1369.6529541 C-283.49756327 1359.36840137 -251.82025147 1347.45632137 -220.9375 1333.3125 C-219.80280273 1332.7978418 -218.66810547 1332.28318359 -217.49902344 1331.75292969 C-174.71958838 1312.31827991 -133.78544402 1289.81684044 -94.9375 1263.3125 C-94.31536621 1262.89081543 -93.69323242 1262.46913086 -93.05224609 1262.03466797 C-82.99177408 1255.21413728 -73.09543968 1248.17956853 -63.27587891 1241.01708984 C-61.70156611 1239.86947532 -60.12568732 1238.72400632 -58.54833984 1237.58056641 C-47.99488391 1229.92883008 -37.7012015 1222.05084297 -27.66113281 1213.73632812 C-25.22519935 1211.72409527 -22.76707525 1209.7394225 -20.3125 1207.75 C-10.76898985 1199.92089287 -1.44096394 1191.88052409 7.5871582 1183.46166992 C10.38619698 1180.85190071 13.21143837 1178.29353289 16.125 1175.8125 C20.16936236 1172.32391682 23.87902685 1168.52284144 27.62988281 1164.72583008 C31.04818657 1161.28093952 34.57665043 1158.03825769 38.265625 1154.8828125 C42.59120807 1151.10262903 46.51874347 1146.98714532 50.25 1142.625 C53.35868119 1139.0110704 56.67388311 1135.6599068 60.0625 1132.3125 C63.98975528 1128.42806338 67.77955664 1124.50145891 71.36328125 1120.29296875 C73.34280432 1117.98580048 75.3889212 1115.74603218 77.4375 1113.5 C81.33174618 1109.18475424 85.02904724 1104.74158245 88.68359375 1100.22265625 C90.7917198 1097.64375 92.93511 1095.10367656 95.10083008 1092.57348633 C100.45783344 1086.30978374 105.56689512 1079.88947958 110.54003906 1073.31640625 C112.32721044 1070.96408062 114.12825722 1068.62267318 115.9296875 1066.28125 C133.7554557 1045.87405487 133.7554557 1045.87405487 142.0625 1021.3125 C140.80055099 1016.87608299 139.23349006 1014.05767549 135.3125 1011.5625 C130.59977251 1011.1999825 127.6980009 1012.48704832 124.0625 1015.3125 C120.44358038 1019.09400003 117.24835427 1023.1687765 114.0625 1027.3125 C112.25347844 1029.64854897 110.44066828 1031.98161369 108.625 1034.3125 C107.94111206 1035.19252686 107.94111206 1035.19252686 107.2434082 1036.09033203 C102.9632043 1041.54580388 98.34336393 1046.6149007 93.58862305 1051.65893555 C92.49550477 1052.84333646 91.4208117 1054.04484666 90.35864258 1055.25708008 C83.07538322 1063.53984584 75.24842418 1071.27739663 67.44213867 1079.06323242 C64.99868078 1081.50131632 62.56063193 1083.94471789 60.12304688 1086.38867188 C58.54979979 1087.96125833 56.97624263 1089.53353464 55.40234375 1091.10546875 C54.68441147 1091.82542526 53.96647919 1092.54538177 53.22679138 1093.28715515 C48.6643909 1097.82874598 43.94065549 1102.11403179 39.0625 1106.3125 C37.45481627 1107.76695517 35.85010285 1109.22470895 34.25 1110.6875 C30.01161157 1114.50847138 25.66370897 1118.15497331 21.2265625 1121.7421875 C18.8496519 1123.66430461 16.49574057 1125.61215269 14.1484375 1127.5703125 C4.67252186 1135.46379529 -4.96135761 1143.06069691 -14.9375 1150.3125 C-15.88616943 1151.00279297 -15.88616943 1151.00279297 -16.85400391 1151.70703125 C-70.39162786 1190.46483192 -128.3082076 1222.00464565 -188.82568359 1248.3894043 C-190.81676896 1249.25972727 -192.80543482 1250.13527355 -194.79296875 1251.01367188 C-212.57712175 1258.86753836 -230.5805231 1265.91881694 -248.9375 1272.3125 C-249.63421814 1272.55526672 -250.33093628 1272.79803345 -251.04876709 1273.04815674 C-330.05524486 1300.50503833 -411.5565973 1316.48249737 -618.9375 1321.3125 C-620.23413574 1321.18891113 -621.53077148 1321.06532227 -622.86669922 1320.93798828 C-672.74138565 1316.03220685 -722.31459322 1304.30020033 -767.9375 1283.3125 C-768.91638184 1282.86680664 -769.89526367 1282.42111328 -770.90380859 1281.96191406 C-803.24413342 1267.15599002 -834.37615847 1248.16568167 -860.3828125 1223.69140625 C-862.45957188 1221.75754315 -864.56702364 1219.89583524 -866.71484375 1218.04296875 C-871.10500029 1214.21545517 -875.25980449 1210.18237506 -879.375 1206.0625 C-880.12217285 1205.31452148 -880.8693457 1204.56654297 -881.63916016 1203.79589844 C-886.34202058 1199.04074983 -890.73122872 1194.22079678 -894.85546875 1188.953125 C-896.7587148 1186.53925196 -898.73809956 1184.21248792 -900.75512695 1181.89355469 C-906.31657478 1175.47474589 -911.38705377 1168.75990249 -916.38452148 1161.89575195 C-920.90001749 1155.69636627 -925.52000666 1149.58559814 -930.1875 1143.5 C-935.82996752 1136.12648041 -941.35288209 1128.69530921 -946.68066406 1121.09179688 C-948.08224206 1119.10758933 -949.50498368 1117.13953824 -950.9296875 1115.171875 C-967.9375 1091.57380057 -967.9375 1091.57380057 -967.9375 1086.3125 C-963.08369402 1088.10997948 -958.55103986 1090.47785976 -953.94921875 1092.828125 C-952.1266098 1093.75256006 -950.30367974 1094.67636225 -948.48046875 1095.59960938 C-947.04840088 1096.32506958 -947.04840088 1096.32506958 -945.58740234 1097.06518555 C-869.46892536 1135.53845235 -788.57298213 1162.41227531 -270.41992188 1146.83496094 C-221.16416071 1130.58420494 -172.37398235 1110.46284165 -126.9375 1085.3125 C-125.98939453 1084.79123535 -125.04128906 1084.2699707 -124.06445312 1083.73291016 C-89.678514 1064.79689942 -56.62114058 1043.97787779 -24.94873047 1020.77880859 C-23.06961754 1019.40882167 -21.17951584 1018.05581528 -19.28515625 1016.70703125 C-18.22167969 1015.93746094 -17.15820312 1015.16789063 -16.0625 1014.375 C-15.15757813 1013.72660156 -14.25265625 1013.07820312 -13.3203125 1012.41015625 C-9.64851412 1009.1777698 -7.17173302 1006.01905484 -6.5 1001.125 C-6.70906812 998.31577382 -6.70906812 998.31577382 -8.3125 996.5 C-12.25895701 993.61605065 -16.23353203 993.84493692 -20.9375 994.3125 C-29.86147279 996.19580595 -37.29316133 1001.43786767 -44.90234375 1006.19921875 C-63.28800279 1017.65998636 -82.60429785 1027.56616602 -101.9375 1037.3125 C-102.96504395 1037.83166992 -103.99258789 1038.35083984 -105.05126953 1038.88574219 C-135.98323535 1054.40543531 -168.22058743 1067.11134177 -200.9375 1078.3125 C-201.63687683 1078.5529303 -202.33625366 1078.7933606 -203.05682373 1079.04107666 C-280.92855269 1105.77268867 -362.57152582 1120.33422879 -469.8671875 1125.515625 C-471.53767421 1125.52264909 -473.20816065 1125.52973589 -474.87864685 1125.53688049 C-480.18993517 1125.55628147 -485.50117981 1125.56131514 -490.8125 1125.5625 C-491.7183572 1125.56294186 -492.6242144 1125.56338371 -493.55752182 1125.56383896 C-520.59947047 1125.57075419 -547.50204113 1125.32602725 -574.42907715 1122.56896973 C-577.08129362 1122.29779805 -579.7344015 1122.03677375 -582.38769531 1121.77636719 C-644.96945101 1115.56193513 -706.99348404 1103.468921 -766.9375 1084.3125 C-767.61905151 1084.09591736 -768.30060303 1083.87933472 -769.00280762 1083.65618896 C-802.80060363 1072.91025777 -835.84580645 1060.44225918 -867.9375 1045.3125 C-869.48969238 1044.58281006 -869.48969238 1044.58281006 -871.07324219 1043.83837891 C-903.26984022 1028.56642825 -934.42792235 1009.55024734 -960.72265625 985.34375 C-962.69589244 983.53408012 -964.70857813 981.79410109 -966.75 980.0625 C-975.48406234 972.42461552 -983.59041495 964.12531693 -990.78125 955.01953125 C-992.22006063 953.21319834 -993.70007038 951.43893907 -995.21875 949.69921875 C-1007.40521458 935.71248099 -1017.31686642 919.7028771 -1025.9375 903.3125 C-1026.86175781 901.56839844 -1026.86175781 901.56839844 -1027.8046875 899.7890625 C-1048.61414454 859.68524198 -1064.47345429 817.90573756 -1069.32055664 772.82885742 C-1069.62681995 769.98308918 -1069.9461526 767.1390138 -1070.26757812 764.29492188 C-1071.78668104 750.68270131 -1073.15680379 737.08930031 -1073 723.375 C-1072.99323242 722.18874023 -1072.99323242 722.18874023 -1072.98632812 720.97851562 C-1072.97488141 719.08980831 -1072.95697053 717.20114164 -1072.9375 715.3125 C-1069.2495445 716.5418185 -1068.48148686 717.88262794 -1066.125 720.9375 C-1061.74703411 726.4295975 -1057.0780533 731.55762296 -1052.25073242 736.65673828 C-1049.03548077 740.05565217 -1045.87711362 743.49282323 -1042.76782227 746.98925781 C-1038.3290503 751.9271329 -1033.72775518 756.66758236 -1029.02734375 761.35546875 C-1028.21560196 762.16816727 -1027.40386017 762.98086578 -1026.56752014 763.81819153 C-1024.86712282 765.51926351 -1023.16548554 767.21909689 -1021.46264648 768.91772461 C-1018.87433345 771.50066516 -1016.29142439 774.08892341 -1013.70898438 776.67773438 C-1012.04459146 778.34146665 -1010.37988846 780.00488879 -1008.71484375 781.66796875 C-1007.95316391 782.43167282 -1007.19148407 783.19537689 -1006.40672302 783.98222351 C-1002.28710105 788.08408446 -998.08470572 792.02656291 -993.67379761 795.8143158 C-991.09462647 798.03978305 -988.61771963 800.36561011 -986.125 802.6875 C-981.52705619 806.93611337 -976.78979272 810.94632139 -971.91015625 814.87109375 C-968.39481552 817.75820013 -964.98213543 820.75087558 -961.5625 823.75 C-955.46745563 829.0724439 -949.21179292 834.05676511 -942.74951172 838.93017578 C-940.72501207 840.47460006 -938.72284184 842.04531256 -936.72265625 843.62109375 C-935.97218018 844.21092041 -935.2217041 844.80074707 -934.44848633 845.40844727 C-933.02021191 846.53228224 -931.59398761 847.65873203 -930.1706543 848.78881836 C-916.32170088 859.64855654 -901.57252846 869.36963598 -886.9375 879.125 C-886.08988098 879.69043518 -885.24226196 880.25587036 -884.36895752 880.83843994 C-871.33193884 889.52193327 -858.19676514 897.91935604 -844.62988281 905.75683594 C-842.00281786 907.27475921 -839.38753903 908.81144847 -836.7734375 910.3515625 C-823.22938018 918.2722841 -809.31687653 925.4653994 -795.33789062 932.57861328 C-792.34949428 934.10242078 -789.36893106 935.64020005 -786.390625 937.18359375 C-713.88071274 974.46912328 -633.79854572 999.0344483 -546.9375 1014.3125 C-545.86719543 1014.49619141 -545.86719543 1014.49619141 -544.77526855 1014.68359375 C-522.09270895 1018.54909781 -499.39740862 1020.75116097 -476.43835449 1022.15820312 C-473.9706283 1022.31045606 -471.50338428 1022.46916414 -469.03613281 1022.62890625 C-425.1425849 1025.42592062 -380.80265729 1025.76234948 -336.9375 1022.3125 C-336.12976135 1022.24933594 -335.32202271 1022.18617188 -334.48980713 1022.12109375 C-264.85622525 1019.72933712 -264.85622525 1019.72933712 -199.6875 1000.4375 C-197.73096907 998.42268612 -197.73096907 998.42268612 -197.5 995.6875 C-197.73829504 993.13350147 -197.73829504 993.13350147 -199.9375 991.3125 C-202.05561155 991.04436746 -202.05561155 991.04436746 -204.47070312 991.14868164 C-205.81950562 991.17612961 -205.81950562 991.17612961 -207.19555664 991.20413208 C-211.27390225 991.3653177 -215.33707163 991.6186806 -219.40625 991.93359375 C-221.21484191 992.06578033 -223.02343573 992.19794088 -224.83203125 992.33007812 C-227.60606187 992.53712779 -230.37997488 992.74565175 -233.15380859 992.95532227 C-257.97099076 994.81896571 -282.73991385 995.52192215 -307.625 995.5 C-308.90742584 995.49939575 -310.18985168 995.4987915 -311.51113892 995.49816895 C-398.78536319 995.38728701 -484.72388186 982.34268234 -644.9375 928.3125 C-646.11795898 927.82330078 -647.29841797 927.33410156 -648.51464844 926.83007812 C-666.9897591 919.12752453 -685.01347697 910.52649243 -703 901.75 C-704.06761566 901.23128326 -705.13523132 900.71256653 -706.23519897 900.1781311 C-751.12192426 878.32622998 -792.6131626 850.83006265 -832.60058594 821.04785156 C-835.84360544 818.63964193 -839.10188099 816.2524322 -842.35913086 813.86352539 C-870.87322804 792.93124408 -897.76030751 770.54507921 -922.8125 745.5625 C-923.35879059 745.01888824 -923.90508118 744.47527649 -924.46792603 743.91519165 C-930.50871643 737.89686235 -936.44955436 731.84733942 -941.9375 725.3125 C-942.47648926 724.68021484 -943.01547852 724.04792969 -943.57080078 723.39648438 C-961.45819792 702.31773505 -976.99287684 679.74257446 -989.9375 655.3125 C-990.4648877 654.31766602 -990.4648877 654.31766602 -991.00292969 653.30273438 C-1009.4427921 618.18758969 -1020.66613423 580.55781815 -1025.9375 541.3125 C-1026.05609375 540.46880859 -1026.1746875 539.62511719 -1026.296875 538.75585938 C-1036.57302203 462.72460487 -1018.72033205 387.20932913 -980.9375 321.3125 C-979.9475 321.3125 -978.9575 321.3125 -977.9375 321.3125 C-977.63682617 322.19059326 -977.33615234 323.06868652 -977.02636719 323.97338867 C-970.00335903 344.3961159 -962.53337444 364.48750789 -953.9375 384.3125 C-953.43669922 385.46959473 -952.93589844 386.62668945 -952.41992188 387.81884766 C-940.55796911 415.06876789 -927.84517495 442.07451468 -913.24902344 467.97460938 C-911.9842894 470.22909432 -910.74217623 472.49439573 -909.5078125 474.765625 C-899.14920063 493.76773432 -887.88268976 512.26873093 -875.9375 530.3125 C-875.1352105 531.53502098 -874.33312456 532.75767556 -873.53125 533.98046875 C-859.55560845 555.20432025 -844.82494306 576.01105396 -828.8125 595.75 C-826.38368186 598.74488416 -824.0096179 601.77866051 -821.64672852 604.82568359 C-817.32668341 610.39092261 -812.86892122 615.72304244 -808.09375 620.91015625 C-805.90208105 623.35196133 -803.85640626 625.8711774 -801.8125 628.4375 C-797.33514286 633.97528383 -792.50946922 639.14259753 -787.60498047 644.30322266 C-784.35034035 647.72865514 -781.15857894 651.18863461 -778.03515625 654.734375 C-771.68343133 661.81930372 -764.90744941 668.49167838 -758.17163086 675.20874023 C-755.8730279 677.50196748 -753.5798397 679.8005124 -751.28710938 682.09960938 C-749.80500813 683.58105 -748.3225968 685.0621805 -746.83984375 686.54296875 C-745.82856667 687.55728218 -745.82856667 687.55728218 -744.79685974 688.59208679 C-740.8980592 692.47201074 -736.89667618 696.17568226 -732.72592163 699.76219177 C-729.95617296 702.16317154 -727.29808506 704.68019093 -724.625 707.1875 C-719.82754372 711.65076707 -714.90587627 715.88224429 -709.79296875 719.984375 C-707.16569634 722.12644662 -704.6039298 724.32346666 -702.04931641 726.55053711 C-694.3255371 733.27437254 -686.28854031 739.50764115 -678.11083984 745.66699219 C-675.95549873 747.29887256 -673.8136687 748.94689956 -671.67578125 750.6015625 C-629.83701623 782.96111925 -584.47662666 810.70929329 -537.32861328 834.59130859 C-534.17954483 836.18964787 -531.03999989 837.80518784 -527.90234375 839.42578125 C-501.74207442 852.84407182 -474.53539823 864.13520401 -447.04400635 874.5168457 C-445.6507843 875.04308343 -444.25815391 875.57089053 -442.8661499 876.1003418 C-407.03953826 889.71689104 -369.84544446 900.25260052 -332.5 908.8125 C-330.737771 909.22121338 -330.737771 909.22121338 -328.93994141 909.63818359 C-319.50605868 911.72465927 -319.50605868 911.72465927 -309.9375 911.3125 C-308.16797658 909.88283828 -308.16797658 909.88283828 -306.9375 908.3125 C-308.6244557 902.83971481 -308.6244557 902.83971481 -313.11914062 899.54663086 C-314.43508375 899.09653794 -315.76105089 898.67509117 -317.09375 898.27734375 C-317.81542358 898.03697891 -318.53709717 897.79661407 -319.28063965 897.54896545 C-320.84159226 897.03134682 -322.4064629 896.52542683 -323.97460938 896.0300293 C-328.20043926 894.69165435 -332.39463628 893.25937075 -336.59375 891.83984375 C-337.45734131 891.55039886 -338.32093262 891.26095398 -339.21069336 890.96273804 C-347.90211064 888.03227711 -356.43334437 884.74452657 -364.9375 881.3125 C-365.66060364 881.02100067 -366.38370728 880.72950134 -367.12872314 880.4291687 C-440.7493006 850.64406587 -509.66218408 811.44516153 -572.65234375 763.05859375 C-575.49730463 760.88475184 -578.37073287 758.75315396 -581.25 756.625 C-596.36319021 745.31698001 -610.76033614 732.98839433 -624.73046875 720.3046875 C-626.67376001 718.55056619 -628.64109448 716.83277306 -630.625 715.125 C-642.6211029 704.63828818 -653.96496355 693.44769501 -665.2109375 682.16943359 C-667.45978794 679.91515829 -669.71402448 677.66636624 -671.96875 675.41796875 C-673.42740452 673.9586543 -674.88574927 672.49903015 -676.34375 671.0390625 C-677.00427368 670.38056305 -677.66479736 669.7220636 -678.34533691 669.04360962 C-682.16987077 665.19999333 -685.81617865 661.25067425 -689.35202026 657.13952637 C-692.00726073 654.07976203 -694.78804951 651.13883022 -697.5625 648.1875 C-698.46319214 647.22372437 -698.46319214 647.22372437 -699.38208008 646.24047852 C-702.35834425 643.05605127 -705.34425969 639.88150631 -708.34765625 636.72265625 C-715.2003857 629.48262947 -721.49898802 621.99844297 -727.56054688 614.08789062 C-729.42625957 611.68231213 -731.34527272 609.32191724 -733.26391602 606.95849609 C-740.24099352 598.35033903 -746.82970194 589.47516467 -753.34033203 580.51074219 C-754.75160291 578.56835714 -756.16980246 576.63128575 -757.58984375 574.6953125 C-768.19748448 560.14079047 -777.92849033 544.90408194 -786.9375 529.3125 C-787.30875 528.67296387 -787.68 528.03342773 -788.0625 527.37451172 C-823.11788889 466.63453679 -849.81279659 395.10782181 -850.140625 324.25 C-850.14768463 323.22863449 -850.15474426 322.20726898 -850.16201782 321.154953 C-850.39229722 278.04178224 -850.39229722 278.04178224 -846.9375 258.3125 C-846.73882324 257.16201172 -846.54014648 256.01152344 -846.33544922 254.82617188 C-837.40645913 204.77032033 -816.91412092 158.53405448 -787.33398438 117.26220703 C-785.82103201 115.14989277 -784.32475404 113.02624997 -782.828125 110.90234375 C-775.59389613 100.69815887 -767.95292905 90.91219691 -759.9375 81.3125 C-759.45539063 80.73129395 -758.97328125 80.15008789 -758.4765625 79.55126953 C-752.71577114 72.61086862 -746.78359068 65.86634903 -740.640625 59.26171875 C-738.63016937 57.09385159 -736.69535796 54.87215194 -734.76953125 52.62890625 C-730.19709252 47.38507302 -725.29104847 42.48200804 -720.375 37.5625 C-718.99538086 36.16451172 -718.99538086 36.16451172 -717.58789062 34.73828125 C-716.69134766 33.83980469 -715.79480469 32.94132812 -714.87109375 32.015625 C-714.06728271 31.20770508 -713.26347168 30.39978516 -712.43530273 29.56738281 C-709.73355738 27.1283915 -707.00685184 25.25795403 -703.9375 23.3125 C-703.98970703 25.26736328 -703.98970703 25.26736328 -704.04296875 27.26171875 C-704.3523788 44.71181411 -702.979663 61.90636238 -701.39501953 79.26318359 C-701.08662272 82.6429274 -700.78828973 86.02330866 -700.49951172 89.40478516 C-698.2398424 115.85383081 -695.11099233 142.0951708 -690.9375 168.3125 C-690.82104126 169.04496948 -690.70458252 169.77743896 -690.58459473 170.53210449 C-682.66963131 219.93200311 -669.38177625 268.11894158 -652.9375 315.3125 C-652.70246765 315.98730408 -652.4674353 316.66210815 -652.22528076 317.35736084 C-645.58928778 336.35602956 -638.13941833 354.93547159 -629.9375 373.3125 C-629.4729541 374.35728516 -629.0084082 375.40207031 -628.52978516 376.47851562 C-616.04981419 404.40338546 -602.44400821 431.94155929 -586.9375 458.3125 C-586.31133789 459.38790039 -585.68517578 460.46330078 -585.04003906 461.57128906 C-576.39908672 476.41146051 -567.50857813 491.04955243 -557.9375 505.3125 C-557.04248779 506.64788818 -557.04248779 506.64788818 -556.12939453 508.01025391 C-534.48263436 540.21833367 -511.09039261 571.3191711 -484.97265625 600.0625 C-483.16372457 602.06239375 -481.38858199 604.08519432 -479.625 606.125 C-469.02880656 618.23244863 -457.76827462 629.6391377 -446.38183594 640.99853516 C-443.67526675 643.69970886 -440.97413104 646.40623429 -438.2734375 649.11328125 C-436.5315708 650.85448765 -434.7893942 652.59538409 -433.046875 654.3359375 C-432.25085876 655.13397797 -431.45484253 655.93201843 -430.63470459 656.75424194 C-426.42812978 660.94340387 -422.1454427 664.97953819 -417.64076233 668.84735107 C-415.24970797 670.90413978 -412.94153689 673.04749547 -410.625 675.1875 C-406.18499216 679.23771292 -401.61815719 683.06784122 -396.94140625 686.83984375 C-393.44084035 689.72132387 -390.03461976 692.69961243 -386.625 695.6875 C-381.23323066 700.40136482 -375.72728903 704.90977911 -370.06274414 709.29077148 C-366.13311771 712.33989612 -362.32990506 715.50341566 -358.5625 718.75 C-351.96251932 724.4051138 -345.06495403 729.61444189 -338.05859375 734.75341797 C-335.91725092 736.32738382 -333.78670633 737.915247 -331.65625 739.50390625 C-286.12598181 773.21401205 -228.36977792 801.91942353 -170.03515625 794.81640625 C-154.60591136 792.42481931 -140.99817401 785.57749986 -129.75 774.8515625 C-127.9375 773.3125 -127.9375 773.3125 -125.9375 773.3125 C-125.68226563 772.74273438 -125.42703125 772.17296875 -125.1640625 771.5859375 C-123.79975645 769.05719189 -122.18140255 767.11912728 -120.3125 764.9375 C-102.63639145 742.91428338 -97.19151424 716.01516931 -98.9375 688.3125 C-101.66668031 663.95040842 -117.53972709 642.60686728 -136.19140625 627.64453125 C-144.68408776 621.1047188 -153.83091396 615.56498184 -162.94335938 609.94360352 C-171.87411576 604.41540897 -180.47554348 598.530288 -188.9375 592.3125 C-189.50388184 591.89774414 -190.07026367 591.48298828 -190.65380859 591.05566406 C-197.55659831 585.98498207 -204.32047612 580.75034879 -210.9375 575.3125 C-211.92621094 574.51070312 -212.91492188 573.70890625 -213.93359375 572.8828125 C-221.59204598 566.56433017 -228.71072289 559.74845537 -235.75 552.75 C-236.62116455 551.88802002 -237.4923291 551.02604004 -238.38989258 550.13793945 C-244.32699675 544.17260369 -249.71372787 537.90758642 -254.9375 531.3125 C-255.40438232 530.73588623 -255.87126465 530.15927246 -256.35229492 529.56518555 C-296.41776783 480.06757982 -322.03009271 416.85386456 -326.9375 353.3125 C-327.04707031 352.03761719 -327.15664063 350.76273437 -327.26953125 349.44921875 C-333.71287123 263.96757506 -304.42153781 178.28432525 -248.9375 113.3125 C-246.17863647 110.17535469 -243.34906173 107.11031712 -240.49609375 104.05859375 C-238.03100192 101.41285397 -235.63833 98.71493923 -233.25 96 C-230.04595724 92.43302142 -226.73263356 89.21789614 -223.06640625 86.1328125 C-220.63840762 84.05676229 -218.32974363 81.873172 -216 79.6875 C-197.49759015 62.88558598 -176.13823083 48.71911133 -153.9375 37.3125 C-152.47280273 36.55670654 -152.47280273 36.55670654 -150.97851562 35.78564453 C-119.11476841 19.5065754 -85.35973354 8.53516378 -49.9375 3.3125 C-48.46313477 3.08820313 -48.46313477 3.08820313 -46.95898438 2.859375 C-31.30560793 0.57104272 -15.79167637 0.02536788 0 0 Z " fill="#0088CC" transform="translate(1072.9375,-0.31250000000000006)"/>
<path d="M0 0 C0.53238281 0.4434375 1.06476563 0.886875 1.61328125 1.34375 C0.99040559 6.08486179 0.10875389 10.68253721 -0.94921875 15.34375 C-10.4613469 61.1686843 21.80155077 104.6569977 45.19921875 140.8984375 C51.0570061 149.99785048 56.78101918 159.14821138 62.17578125 168.53125 C62.89048584 169.76790405 62.89048584 169.76790405 63.61962891 171.02954102 C72.61328125 186.88441266 72.61328125 186.88441266 72.61328125 192.34375 C64.98750725 195.75528047 57.9972074 194.03449587 50.42578125 191.28125 C29.71305213 182.73543869 11.91530342 169.38247938 -5.38671875 155.34375 C-6.30195312 154.61027344 -7.2171875 153.87679687 -8.16015625 153.12109375 C-20.66618002 143.01725343 -32.65816005 132.33410316 -44.38671875 121.34375 C-45.07088867 120.70469727 -45.75505859 120.06564453 -46.45996094 119.40722656 C-67.95207767 99.32693108 -67.95207767 99.32693108 -75.46484375 90.5390625 C-77.74842196 87.93058495 -80.13354748 85.42876115 -82.51171875 82.90625 C-87.0907531 77.97851325 -91.28736695 72.80043994 -95.38671875 67.46875 C-95.93859863 66.75533447 -96.49047852 66.04191895 -97.05908203 65.30688477 C-101.92194347 58.89456005 -104.95109726 53.80589294 -104.82421875 45.53125 C-104.81447021 44.82057373 -104.80472168 44.10989746 -104.79467773 43.37768555 C-104.5941133 37.43078021 -103.56681546 33.31532976 -100.38671875 28.34375 C-99.75378906 27.32796875 -99.12085938 26.3121875 -98.46875 25.265625 C-88.0127395 9.07651668 -73.51322178 -3.23362858 -54.38671875 -7.62890625 C-37.23817248 -11.23130578 -14.9961882 -10.40652013 0 0 Z " fill="#0088CC" transform="translate(1364.38671875,318.65625)"/>
</svg>
